<svg width="298" height="132" viewBox="0 0 298 132" fill="none" xmlns="http://www.w3.org/2000/svg">
<g clip-path="url(#clip0_3016_24305)">
<path d="M51.7744 1.93928C56.2456 -0.646427 61.7544 -0.646426 66.2256 1.93928L110.774 27.7018C115.246 30.2875 118 35.0661 118 40.2375V91.7625C118 96.9339 115.246 101.713 110.774 104.298L66.2256 130.061C61.7544 132.646 56.2456 132.646 51.7744 130.061L7.22563 104.298C2.75439 101.713 0 96.9339 0 91.7625V40.2375C0 35.0661 2.75439 30.2875 7.22563 27.7018L51.7744 1.93928Z" fill="url(#paint0_linear_3016_24305)"/>
<path d="M75.7941 51.5358C75.8314 51.1362 75.9699 50.5634 76.4174 50.0546C76.9954 49.3966 77.7492 49.2341 78.21 49.1995H85.4391C86.2968 49.1995 86.9947 48.5042 86.9947 47.6437V39.5558C86.9947 38.698 86.2995 38 85.4391 38H77.3524C76.4947 38 75.7968 38.6953 75.7968 39.5558V46.7699C75.7702 47.1722 75.6397 47.8462 75.0963 48.4242C74.6168 48.9331 74.0388 49.1302 73.602 49.2021H66.1518C65.2941 49.2021 64.5963 49.8974 64.5963 50.7579V57.972C64.5696 58.3743 64.4391 59.0483 63.8957 59.6264C63.4163 60.1352 62.8383 60.3323 62.4014 60.4043H55.5613C55.1244 60.3323 54.5464 60.1352 54.067 59.6264C53.6248 59.1575 53.457 58.6274 53.3957 58.2278V50.7606C53.3957 49.9028 52.7005 49.2048 51.8402 49.2048H44.3634C43.9266 49.1329 43.3486 48.9357 42.8691 48.4269C42.4269 47.958 42.2591 47.4279 42.1979 47.0283V39.5558C42.1979 38.698 41.5027 38 40.6423 38H32.5556C31.6952 38 31 38.6953 31 39.5558V47.6437C31 48.5015 31.6952 49.1995 32.5556 49.1995H39.7553C40.2161 49.2341 40.9699 49.3993 41.5479 50.0546C42.2698 50.8751 42.1872 51.8608 42.1712 52.026L42.2005 51.9993V57.9667C42.1739 58.369 42.0434 59.043 41.5 59.621C41.0205 60.1299 40.4425 60.327 40.0057 60.3989H32.5556C31.6979 60.3989 31 61.0942 31 61.9547V92.4442C31 93.302 31.6952 94 32.5556 94H40.6423C41.5 94 42.1979 93.3047 42.1979 92.4442V62.7353C42.2352 62.3357 42.3737 61.7629 42.8212 61.2541C43.3992 60.5961 44.153 60.4336 44.6138 60.3989H50.9559C51.4167 60.4336 52.1705 60.5987 52.7485 61.2541C53.4703 62.0746 53.3877 63.0603 53.3718 63.2254L53.4011 63.1988V70.0426C53.4011 70.9004 54.0963 71.5984 54.9566 71.5984H63.0434C63.9011 71.5984 64.5989 70.9031 64.5989 70.0426V62.7326C64.6362 62.333 64.7747 61.7602 65.2222 61.2514C65.8002 60.5934 66.554 60.4309 67.0148 60.3963H73.3569C73.8177 60.4309 74.5715 60.5961 75.1495 61.2514C75.8714 62.0719 75.7888 63.0576 75.7728 63.2228L75.8021 63.1961V92.4416C75.8021 93.2994 76.4973 93.9973 77.3577 93.9973H85.4444C86.3021 93.9973 87 93.302 87 92.4416V61.9547C87 61.0969 86.3048 60.3989 85.4444 60.3989H77.9677C77.5308 60.327 76.9528 60.1299 76.4734 59.621C76.0312 59.1522 75.8634 58.622 75.8021 58.2224V51.5331L75.7941 51.5358Z" fill="white"/>
<path d="M147 91.2005V41.9555C147 40.0169 148.188 38.8516 150.249 38.8516H152.624C154.844 38.8516 155.634 39.3934 156.585 41.411L169.816 68.6337L183.048 41.411C183.999 39.3934 184.792 38.8516 186.931 38.8516H189.148C191.209 38.8516 192.396 40.0142 192.396 41.9529V91.2005C192.396 92.3631 191.604 93.1391 190.416 93.1391H188.118C186.931 93.1391 186.138 92.3631 186.138 91.2005V48.6237L172.589 75.999C171.877 77.4721 171.085 78.0929 169.658 78.0929C168.39 78.0929 167.519 77.4721 166.807 75.999L153.258 48.6237V91.2005C153.258 92.3631 152.466 93.1391 151.278 93.1391H148.98C147.793 93.1391 147 92.3631 147 91.2005Z" fill="#FBFAFF"/>
<path d="M206.102 91.6661C206.102 90.969 206.338 90.5034 207.131 89.3381L222.579 65.7612L207.37 42.6526C206.577 41.4899 206.341 41.0243 206.341 40.3273C206.341 39.3961 206.975 38.8542 208.163 38.8542H210.697C212.201 38.8542 212.835 39.3198 213.706 40.6376L227.015 61.2658L240.327 40.635C241.198 39.3172 241.832 38.8516 243.259 38.8516H245.715C246.825 38.8516 247.459 39.3934 247.459 40.3246C247.459 41.0217 247.223 41.4873 246.508 42.65L231.296 65.7612L246.744 89.3381C247.456 90.5008 247.696 90.9664 247.696 91.6661C247.696 92.5973 247.061 93.1391 245.952 93.1391H243.337C241.832 93.1391 241.276 92.6735 240.405 91.3557L226.779 70.3382L213.231 91.3557C212.36 92.6735 211.726 93.1391 210.299 93.1391H207.923C206.736 93.1391 206.102 92.5973 206.102 91.6661Z" fill="#FBFAFF"/>
<path d="M258.703 75.4578V56.5343C258.703 44.5919 265.993 38 278.668 38C291.344 38 298 43.5056 298 55.1401V56.8473C298 57.8548 297.446 58.3993 296.495 58.3993H292.929C291.978 58.3993 291.424 57.8574 291.424 56.9262V55.1427C291.424 46.9988 287.622 43.3556 278.668 43.3556C269.715 43.3556 265.518 47.7774 265.518 56.0739V75.9287C265.518 84.2278 270.113 88.647 278.591 88.647C287.622 88.647 291.424 85.0012 291.424 76.781V74.5319C291.424 73.6007 291.978 73.0589 292.929 73.0589H296.495C297.446 73.0589 298 73.6007 298 74.6108V76.7836C298 88.4944 291.661 94 278.591 94C265.52 94 258.706 87.4081 258.706 75.4657L258.703 75.4578Z" fill="#FBFAFF"/>
</g>
<defs>
<linearGradient id="paint0_linear_3016_24305" x1="26.5" y1="18.5" x2="59.1174" y2="125.464" gradientUnits="userSpaceOnUse">
<stop stop-color="#0F51FB"/>
<stop offset="0.444764" stop-color="#6324FB"/>
<stop offset="1" stop-color="#EF3678"/>
</linearGradient>
<clipPath id="clip0_3016_24305">
<rect width="298" height="132" fill="white"/>
</clipPath>
</defs>
</svg>
