<svg width="524" height="232" viewBox="0 0 524 232" fill="none" xmlns="http://www.w3.org/2000/svg">
<g clip-path="url(#clip0_3016_24834)">
<path d="M90.9974 3.40843C98.8559 -1.13614 108.538 -1.13614 116.397 3.40843L194.694 48.688C202.554 53.2326 207.394 61.6313 207.394 70.7205V161.28C207.394 170.369 202.554 178.768 194.694 183.312L116.397 228.592C108.538 233.135 98.8559 233.135 90.9974 228.592L12.6996 183.312C4.84105 178.768 0 170.369 0 161.28V70.7205C0 61.6313 4.84105 53.2326 12.6996 48.688L90.9974 3.40843Z" fill="url(#paint0_linear_3016_24834)"/>
<path d="M133.213 90.5783C133.279 89.876 133.522 88.8692 134.309 87.975C135.325 86.8185 136.65 86.5329 137.46 86.4721H150.165C151.673 86.4721 152.899 85.25 152.899 83.7376V69.5225C152.899 68.0149 151.677 66.7881 150.165 66.7881H135.952C134.445 66.7881 133.218 68.0101 133.218 69.5225V82.2019C133.171 82.9089 132.942 84.0935 131.987 85.1094C131.144 86.0038 130.128 86.3503 129.361 86.4766H116.266C114.759 86.4766 113.532 87.6987 113.532 89.2111V101.89C113.485 102.597 113.256 103.782 112.301 104.798C111.458 105.692 110.443 106.039 109.675 106.165H97.6527C96.8848 106.039 95.869 105.692 95.0264 104.798C94.2492 103.974 93.9543 103.042 93.8465 102.34V89.2158C93.8465 87.7082 92.6246 86.4814 91.1126 86.4814H77.9716C77.2039 86.355 76.188 86.0084 75.3452 85.1142C74.568 84.29 74.2731 83.3583 74.1655 82.656V69.5225C74.1655 68.0149 72.9437 66.7881 71.4314 66.7881H57.2185C55.7062 66.7881 54.4844 68.0101 54.4844 69.5225V83.7376C54.4844 85.2453 55.7062 86.4721 57.2185 86.4721H69.8725C70.6824 86.5329 72.0072 86.8232 73.0231 87.975C74.2919 89.417 74.1467 91.1495 74.1186 91.4398L74.1701 91.3929V101.881C74.1234 102.588 73.894 103.773 72.9389 104.789C72.0962 105.683 71.0803 106.029 70.3126 106.156H57.2185C55.711 106.156 54.4844 107.378 54.4844 108.89V162.478C54.4844 163.986 55.7062 165.212 57.2185 165.212H71.4314C72.9389 165.212 74.1655 163.99 74.1655 162.478V110.262C74.2311 109.56 74.4745 108.553 75.261 107.659C76.2769 106.502 77.6018 106.217 78.4117 106.156H89.5584C90.3683 106.217 91.6931 106.507 92.709 107.659C93.9776 109.101 93.8325 110.833 93.8045 111.124L93.856 111.077V123.105C93.856 124.613 95.0779 125.84 96.5899 125.84H110.803C112.311 125.84 113.537 124.618 113.537 123.105V110.258C113.603 109.555 113.846 108.548 114.632 107.654C115.648 106.498 116.973 106.212 117.783 106.151H128.93C129.74 106.212 131.065 106.502 132.08 107.654C133.349 109.096 133.204 110.829 133.176 111.119L133.227 111.072V162.473C133.227 163.981 134.449 165.208 135.962 165.208H150.175C151.682 165.208 152.909 163.986 152.909 162.473V108.89C152.909 107.383 151.687 106.156 150.175 106.156H137.034C136.266 106.029 135.25 105.683 134.407 104.789C133.63 103.965 133.335 103.033 133.227 102.33V90.5735L133.213 90.5783Z" fill="white"/>
<path d="M258.363 160.291V73.7395C258.363 70.3323 260.451 68.2842 264.074 68.2842H268.248C272.15 68.2842 273.538 69.2364 275.21 72.7825L298.464 120.628L321.72 72.7825C323.392 69.2364 324.786 68.2842 328.545 68.2842H332.442C336.064 68.2842 338.15 70.3275 338.15 73.7349V160.291C338.15 162.335 336.758 163.699 334.67 163.699H330.631C328.545 163.699 327.151 162.335 327.151 160.291V85.4594L303.338 133.574C302.087 136.163 300.694 137.254 298.186 137.254C295.958 137.254 294.427 136.163 293.176 133.574L269.362 85.4594V160.291C269.362 162.335 267.97 163.699 265.882 163.699H261.843C259.757 163.699 258.363 162.335 258.363 160.291Z" fill="#0F0228"/>
<path d="M362.238 161.11C362.238 159.884 362.653 159.066 364.047 157.018L391.198 115.58L364.467 74.9647C363.073 72.9212 362.658 72.1029 362.658 70.8778C362.658 69.2412 363.773 68.2887 365.861 68.2887H370.314C372.958 68.2887 374.072 69.1071 375.603 71.4232L398.994 107.679L422.391 71.4186C423.922 69.1025 425.036 68.2842 427.545 68.2842H431.861C433.812 68.2842 434.926 69.2364 434.926 70.8731C434.926 72.0983 434.512 72.9166 433.255 74.9602L406.519 115.58L433.67 157.018C434.921 159.062 435.343 159.88 435.343 161.11C435.343 162.746 434.227 163.699 432.278 163.699H427.682C425.036 163.699 424.059 162.88 422.528 160.564L398.58 123.624L374.768 160.564C373.237 162.88 372.123 163.699 369.615 163.699H365.439C363.353 163.699 362.238 162.746 362.238 161.11Z" fill="#0F0228"/>
<path d="M454.689 132.623V99.3635C454.689 78.3739 467.502 66.7881 489.779 66.7881C512.058 66.7881 523.757 76.4646 523.757 96.9131V99.9136C523.757 101.684 522.783 102.641 521.112 102.641H514.844C513.173 102.641 512.199 101.689 512.199 100.052V96.9177C512.199 82.6042 505.517 76.201 489.779 76.201C474.044 76.201 466.667 83.9726 466.667 98.5543V133.451C466.667 148.037 474.743 155.804 489.644 155.804C505.517 155.804 512.199 149.396 512.199 134.949V130.996C512.199 129.359 513.173 128.407 514.844 128.407H521.112C522.783 128.407 523.757 129.359 523.757 131.134V134.953C523.757 155.536 512.616 165.212 489.644 165.212C466.671 165.212 454.695 153.627 454.695 132.637L454.689 132.623Z" fill="#0F0228"/>
</g>
<defs>
<linearGradient id="paint0_linear_3016_24834" x1="46.5758" y1="32.5152" x2="103.903" y2="220.512" gradientUnits="userSpaceOnUse">
<stop stop-color="#0F51FB"/>
<stop offset="0.444764" stop-color="#6324FB"/>
<stop offset="1" stop-color="#EF3678"/>
</linearGradient>
<clipPath id="clip0_3016_24834">
<rect width="523.758" height="232" fill="white"/>
</clipPath>
</defs>
</svg>
